<svg xmlns="http://www.w3.org/2000/svg" aria-hidden="true" style="position:absolute;width:0;height:0;overflow:hidden">
  <defs>
    <symbol id="pictures-icon" viewBox="0 0 32 32">
      <path d="m24 22.141-1.785-1.716a4 4 0 0 0-6.39.675l-.01.019-5.228 8.215H5.334a2.667 2.667 0 0 1-2.667-2.667V13.334a2.667 2.667 0 0 1 2.667-2.667h16a2.667 2.667 0 0 1 2.667 2.667v8.808zm0 3.67v.856a2.667 2.667 0 0 1-2.667 2.667h-7.317l4.103-6.872a1.334 1.334 0 0 1 2.132-.232l.001.001L24 25.812zm-13.333-3.144a4 4 0 0 0 0-8 4 4 0 0 0 0 8zM8 9.333v-4a2.667 2.667 0 0 1 2.667-2.667h16a2.667 2.667 0 0 1 2.667 2.667v9.013l-1.785-1.921a3.997 3.997 0 0 0-2.498-1.269l-.018-.002c-.488-1.079-1.512-1.821-2.699-1.821h-2.56c-.565-1.569-2.041-2.67-3.773-2.67s-3.208 1.101-3.765 2.642l-.009.028H8zm17.333 12v-7.317c.095.063.178.133.251.212l.001.001 3.748 3.985v.452a2.667 2.667 0 0 1-2.667 2.667h-1.333z"/>
    </symbol>
    <symbol id="logo-icon" viewBox="0 0 114 32">
      <path fill="#fff" d="M.287 30.599V.918h6.321v24.483H18.7v5.197H.286zM50.961 15.719c0 2.287-.285 4.372-.856 6.253-.571 1.868-1.441 3.478-2.61 4.832-1.156 1.353-2.624 2.396-4.405 3.126-1.781.717-3.888 1.076-6.321 1.076s-4.541-.359-6.321-1.076c-1.781-.731-3.256-1.773-4.425-3.126-1.156-1.353-2.019-2.971-2.59-4.852s-.857-3.972-.857-6.273c0-3.072.503-5.745 1.509-8.019 1.02-2.287 2.583-4.06 4.69-5.319S33.56.453 36.809.453c3.235 0 5.893.629 7.973 1.888 2.094 1.259 3.643 3.032 4.649 5.319 1.02 2.287 1.529 4.974 1.529 8.06zm-21.758 0c0 2.071.258 3.857.775 5.36.53 1.489 1.353 2.639 2.467 3.451 1.115.799 2.556 1.198 4.323 1.198 1.794 0 3.249-.399 4.364-1.198 1.115-.812 1.924-1.962 2.427-3.451.517-1.502.775-3.289.775-5.36 0-3.113-.585-5.563-1.754-7.349s-3.093-2.68-5.771-2.68c-1.781 0-3.236.406-4.364 1.218-1.115.799-1.937 1.949-2.467 3.451-.517 1.489-.775 3.275-.775 5.36zM68.457 13.932h11.827V29.32a37.168 37.168 0 0 1-4.874 1.238c-1.686.298-3.596.447-5.73.447-2.964 0-5.479-.582-7.545-1.746s-3.637-2.883-4.711-5.157c-1.074-2.274-1.611-5.069-1.611-8.384 0-3.113.598-5.806 1.794-8.08 1.21-2.274 2.97-4.033 5.281-5.278C65.213 1.115 68.047.492 71.391.492c1.577 0 3.134.169 4.67.508s2.93.778 4.18 1.32l-2.1 5.035c-.911-.46-1.951-.846-3.12-1.157s-2.393-.467-3.671-.467c-1.835 0-3.433.42-4.792 1.259-1.346.839-2.393 2.017-3.14 3.532-.734 1.502-1.101 3.275-1.101 5.319 0 1.935.265 3.654.795 5.157.53 1.489 1.366 2.659 2.508 3.512 1.142.839 2.631 1.259 4.466 1.259.897 0 1.652-.041 2.263-.122.625-.095 1.21-.189 1.754-.284v-6.192h-5.648v-5.238zM114.461 15.719c0 2.287-.285 4.372-.856 6.253-.571 1.868-1.441 3.478-2.61 4.832-1.156 1.353-2.624 2.396-4.405 3.126-1.781.717-3.888 1.076-6.321 1.076s-4.541-.359-6.321-1.076c-1.781-.731-3.256-1.773-4.425-3.126-1.156-1.353-2.019-2.971-2.59-4.852s-.856-3.972-.856-6.273c0-3.072.503-5.745 1.509-8.019 1.02-2.287 2.583-4.06 4.69-5.319S97.061.453 100.31.453c3.235 0 5.893.629 7.973 1.888 2.094 1.259 3.643 3.032 4.649 5.319 1.02 2.287 1.529 4.974 1.529 8.06zm-21.758 0c0 2.071.258 3.857.775 5.36.53 1.489 1.353 2.639 2.467 3.451 1.115.799 2.556 1.198 4.323 1.198 1.795 0 3.249-.399 4.364-1.198 1.115-.812 1.924-1.962 2.427-3.451.517-1.502.775-3.289.775-5.36 0-3.113-.585-5.563-1.754-7.349s-3.093-2.68-5.771-2.68c-1.781 0-3.236.406-4.364 1.218-1.115.799-1.937 1.949-2.467 3.451-.517 1.489-.775 3.275-.775 5.36z" style="fill:var(--color1, #fff)"/>
    </symbol>
    <symbol id="instagram-icon" viewBox="0 0 31 32">
      <path d="M15.411 8.33c-4.372 0-7.899 3.527-7.899 7.901s3.527 7.901 7.899 7.901 7.899-3.527 7.899-7.901a7.888 7.888 0 0 0-7.899-7.901zm0 13.037c-2.825 0-5.135-2.304-5.135-5.136s2.303-5.136 5.135-5.136 5.135 2.303 5.135 5.136a5.145 5.145 0 0 1-5.135 5.136zm10.064-13.36a1.838 1.838 0 0 1-1.842 1.843 1.843 1.843 0 1 1 1.842-1.843zm5.231 1.87c-.117-2.468-.681-4.655-2.489-6.457-1.801-1.802-3.987-2.365-6.455-2.489-2.544-.144-10.167-.144-12.711 0-2.461.117-4.647.681-6.455 2.482S.231 7.401.107 9.87c-.144 2.544-.144 10.17 0 12.714.117 2.468.681 4.655 2.489 6.457s3.987 2.365 6.455 2.489c2.544.144 10.167.144 12.711 0 2.468-.117 4.654-.681 6.455-2.489 1.801-1.802 2.365-3.988 2.489-6.457.144-2.544.144-10.163 0-12.707zm-3.285 15.437a5.196 5.196 0 0 1-2.929 2.929c-2.028.805-6.84.619-9.081.619s-7.06.179-9.081-.619a5.205 5.205 0 0 1-2.929-2.929c-.804-2.028-.619-6.842-.619-9.083s-.179-7.062.619-9.083A5.196 5.196 0 0 1 6.33 4.219c2.028-.804 6.84-.619 9.081-.619s7.06-.179 9.081.619a5.202 5.202 0 0 1 2.929 2.929c.804 2.028.619 6.842.619 9.083s.186 7.062-.619 9.083z"/>
    </symbol>
    <symbol id="facebook-icon" viewBox="0 0 21 32">
      <path d="M19.711 1.089a.857.857 0 0 0-.857-.857H14.57a8.176 8.176 0 0 0-8.569 7.711v4.627H1.717a.857.857 0 0 0-.857.857v4.456a.857.857 0 0 0 .857.857h4.284v11.482a.857.857 0 0 0 .857.857h5.141a.857.857 0 0 0 .857-.857V18.74h4.49a.854.854 0 0 0 .84-.634l1.234-4.456a.848.848 0 0 0-.146-.742.851.851 0 0 0-.677-.337h-5.741V7.944a1.714 1.714 0 0 1 1.714-1.542h4.284a.857.857 0 0 0 .857-.857V1.089z"/>
    </symbol>
  </defs>
</svg>
